<svg width="30" height="30" fill="none" xmlns="http://www.w3.org/2000/svg">
    <path
        d="M15.32 15.04c1.66 0 3.09-.6 4.26-1.76a5.83 5.83 0 0 0 1.76-4.26c0-1.65-.59-3.09-1.76-4.26A5.83 5.83 0 0 0 15.32 3c-1.65 0-3.09.6-4.26 1.76A5.83 5.83 0 0 0 9.3 9.02c0 1.66.6 3.09 1.76 4.26a5.83 5.83 0 0 0 4.26 1.76ZM12.1 5.8c.9-.9 1.95-1.33 3.22-1.33 1.27 0 2.32.43 3.22 1.33.9.9 1.34 1.95 1.34 3.22 0 1.27-.44 2.32-1.34 3.22-.9.9-1.95 1.34-3.22 1.34a4.35 4.35 0 0 1-3.22-1.34 4.35 4.35 0 0 1-1.33-3.22c0-1.27.43-2.32 1.33-3.22ZM25.86 22.22a14.86 14.86 0 0 0-.6-3.17c-.16-.5-.37-1-.65-1.48-.28-.5-.6-.92-.98-1.28a4.34 4.34 0 0 0-1.41-.89 4.89 4.89 0 0 0-1.81-.33c-.26 0-.5.1-.98.42l-1.02.66a5.84 5.84 0 0 1-2.93.84 5.82 5.82 0 0 1-2.93-.84l-1.02-.66c-.48-.31-.73-.42-.98-.42-.65 0-1.26.11-1.8.33-.56.22-1.03.52-1.42.89-.37.36-.7.79-.99 1.28-.27.48-.49.98-.65 1.48a14.77 14.77 0 0 0-.64 4.64c0 1.31.42 2.37 1.23 3.15C7.1 27.6 8.16 28 9.46 28H21.5c1.3 0 2.37-.4 3.18-1.16a4.15 4.15 0 0 0 1.23-3.14c0-.5-.02-1-.05-1.48Zm-2.2 3.56c-.53.5-1.24.75-2.16.75H9.46c-.92 0-1.63-.24-2.17-.75-.52-.5-.77-1.18-.77-2.08a13.32 13.32 0 0 1 .57-4.2c.13-.4.3-.81.53-1.2.21-.38.45-.7.72-.95.25-.24.57-.44.94-.59.35-.13.74-.2 1.16-.22l.29.18 1.03.66a7.26 7.26 0 0 0 3.72 1.07 7.27 7.27 0 0 0 3.72-1.07 132.38 132.38 0 0 0 1.32-.84c.42.01.81.09 1.16.22.37.15.69.35.94.59.27.26.5.57.72.95.22.39.4.8.53 1.2a13.42 13.42 0 0 1 .52 2.82c.04.45.05.9.05 1.38 0 .9-.25 1.58-.77 2.08Z"
        fill="CurrentColor" />
</svg>