<svg width="30" height="30" viewBox="0 0 30 30" fill="none" xmlns="http://www.w3.org/2000/svg">
    <path
        d="M26.68 11.4a.67.67 0 0 0-.53-.17h-6.17V8.72c0-2.68-2.29-4.85-5.1-4.85a4.98 4.98 0 0 0-5.11 4.85v2.51H3.59c-.09 0-.19 0-.28.02a.41.41 0 0 0-.25.16.58.58 0 0 0-.18.52l2.2 11.39a3.65 3.65 0 0 0 3.58 2.88H21.1a3.68 3.68 0 0 0 3.58-2.9l-.12-.03.12.02 2.2-11.35a.58.58 0 0 0-.19-.54Zm0 0-.08.1.08-.1Zm-3.43 11.7a2.18 2.18 0 0 1-2.16 1.73H8.66A2.18 2.18 0 0 1 6.5 23.1L4.45 12.6H25.3l-2.05 10.5ZM11.19 8.72a3.59 3.59 0 0 1 3.69-3.48 3.59 3.59 0 0 1 3.68 3.48v2.51h-7.37V8.72Z M19.27 18a.7.7 0 0 0 .71-.67v-1.67a.7.7 0 0 0-.7-.68.7.7 0 0 0-.72.68v1.67c0 .38.32.68.71.68Zm-8.79 0a.7.7 0 0 0 .71-.67v-1.67a.7.7 0 0 0-.71-.68.7.7 0 0 0-.71.68v1.67c0 .38.32.68.71.68Z"
        fill="CurrentColor" stroke="CurrentColor" stroke-width=".25" />
    <path class='cart-hover'
        d="M26.68 11.4a.67.67 0 0 0-.53-.17h-6.17V8.72c0-2.68-2.29-4.85-5.1-4.85a4.98 4.98 0 0 0-5.11 4.85v2.51H3.59c-.09 0-.19 0-.28.02a.41.41 0 0 0-.25.16.58.58 0 0 0-.18.52l2.2 11.39a3.65 3.65 0 0 0 3.58 2.88H21.1a3.68 3.68 0 0 0 3.58-2.9l-.12-.03.12.02 2.2-11.35a.58.58 0 0 0-.19-.54Zm0 0-.08.1.08-.1Z"
        stroke-width=".25" />
</svg>