<svg width="30" height="30" viewBox="0 0 30 30" fill="none" xmlns="http://www.w3.org/2000/svg">
    <path fill="CurrentColor" stroke="CurrentColor" stroke-width=".25"
        d="M27.43 11.87a.67.67 0 0 0-.53-.18h-6.17V9.2c0-2.7-2.29-4.85-5.1-4.85a4.98 4.98 0 0 0-5.11 4.84v2.51H4.34c-.09 0-.19 0-.28.02a.41.41 0 0 0-.25.17.58.58 0 0 0-.18.52l2.2 11.38a3.65 3.65 0 0 0 3.58 2.88h12.43a3.68 3.68 0 0 0 3.58-2.9l-.12-.03.12.02 2.2-11.35a.58.58 0 0 0-.19-.53Zm0 0-.08.09.08-.1ZM24 23.57a2.18 2.18 0 0 1-2.16 1.73H9.4a2.18 2.18 0 0 1-2.16-1.73L5.2 13.06h20.85L24 23.56ZM11.94 9.18a3.59 3.59 0 0 1 3.69-3.48 3.59 3.59 0 0 1 3.68 3.48v2.51h-7.37V9.2Z" />
    <path fill="CurrentColor" stroke="CurrentColor" stroke-width=".25"
        d="M20.02 18.47a.7.7 0 0 0 .71-.68v-1.67a.7.7 0 0 0-.7-.68.7.7 0 0 0-.72.68v1.67c0 .38.32.68.71.68Zm-8.79 0a.7.7 0 0 0 .71-.68v-1.67a.7.7 0 0 0-.71-.68.7.7 0 0 0-.71.68v1.67c0 .38.32.68.7.68Z" />
</svg>