<svg width="100" height="85" viewBox="0 0 100 85" fill="none" xmlns="http://www.w3.org/2000/svg">
    <path
        d="m36 39.9-6.9-.1c-.6 0-1.2-.6-1.3-1.2l-1.6-10c0-.7-.3-1.2-.6-1.4a3 3 0 0 0-2.6-1.3l-8.8.3c-1.7.1-3 1.6-3 3.2v21.3l-.2 4.1-.3 5c0 1.1-.5 2.8-.9 3.8l-3.5 8c-.4.8-.4 1.7 0 2.4.3.7 1 1.3 1.8 1.5h.4l.8.1c1.3 0 2.7-.8 3.3-2l3.3-6.7c.5-1.1 1.2-3 1.5-4.2l1.9-7.9 4.6 7c.5.9 1.1 2.5 1.2 3.5l.9 7.8c.2 1.6 1.7 3 3.3 3h.5a2.9 2.9 0 0 0 3-3.2l-1-9.5a20 20 0 0 0-1-4.3l-4.5-11.6v-2.2l10-.4a3 3 0 0 0 2.2-1c.4-.4.6-1 .6-1.6-.1-1.4-1.4-2.4-3-2.4ZM29.4 75ZM16.8 24a7.5 7.5 0 0 0 7.5-8.1l1.9-.2c1-.1 2.2-1 2.6-2l.6-1.7c.2-.6.1-1.2-.2-1.7-.3-.5-.9-.7-1.5-.7h-.2l-6.6.6a7.5 7.5 0 1 0-4 13.8Z"
        fill="#AD2131" />
    <path
        d="M47 25.5a3.1 3.1 0 0 0-3-2.9H31.5a2.8 2.8 0 0 0-2.8 3l.7 9.2a3.1 3.1 0 0 0 3 2.8H45a2.8 2.8 0 0 0 2.7-3l-.6-9.1ZM77.5 26.5a7.9 7.9 0 1 0 0-15.8 7.9 7.9 0 0 0 0 15.8ZM93.3 37.8 88 30.3c-.6-.9-2-2-4.3-2h-13a9 9 0 0 0-3.5 1l-4.2 2.1a4 4 0 0 1-1.6.4l-1.1-.2-6.7-2.5-1-.2c-1.2 0-2.2 1-2.2 2.4v.5c0 1.4 1.1 3 2.5 3.5l6.8 2.5c.6.2 1.4.4 2.3.4.7 0 1.4-.2 2-.3l5.3-1.8V73c0 2 1.6 3.5 3.5 3.5h.8c2 0 3.5-1.6 3.5-3.5V54.6h1V73c0 2 1.5 3.5 3.4 3.5h.9c1.9 0 3.5-1.6 3.5-3.5V50.6a5 5 0 0 0 3.5-2l4.1-6.5a4 4 0 0 0 0-4.3Zm-7.5-.9 1.8 2.6a2 2 0 0 1 0 2.1l-1.8 2.5V37Z"
        fill="#AD2131" />
</svg>