<svg width="100" height="100" viewBox="0 0 100 100" fill="none" xmlns="http://www.w3.org/2000/svg">
<g clip-path="url(#clip0_2994_12768)">
<path d="M34.175 46.733L26.2756 46.6119C25.595 46.6013 24.9054 46.0024 24.7997 45.33L22.9914 33.8344C22.878 33.1137 22.5914 32.6182 22.2396 32.2957C21.5848 31.3638 20.4842 30.7655 19.2638 30.8198L9.28909 31.2542C7.37048 31.3378 5.80991 32.9685 5.81057 34.8889L5.81895 58.7894C5.81895 58.847 5.82447 58.9028 5.82733 58.9593C5.82645 58.9882 5.82314 59.016 5.82292 59.0451C5.81586 60.3061 5.74946 62.4054 5.67467 63.725L5.35038 69.4681C5.28222 70.673 4.81277 72.6234 4.32522 73.7271L0.287244 82.8655C-0.101905 83.7459 -0.0952872 84.7192 0.304893 85.5359C0.705294 86.3526 1.4708 86.954 2.40507 87.1858L2.78958 87.2814C3.08189 87.3539 3.38765 87.3908 3.69848 87.3908C5.28288 87.3908 6.79844 86.4713 7.46975 85.1027L11.2432 77.4112C11.862 76.1498 12.6326 74.0115 12.9609 72.6446L15.1003 63.7327L20.2985 71.6821C20.9294 72.647 21.5965 74.4988 21.726 75.6444L22.7267 84.5081C22.9371 86.3731 24.6358 87.8905 26.5134 87.8905L27.0775 87.8885C28.0378 87.885 28.9109 87.5018 29.5359 86.8091C30.1609 86.1163 30.4532 85.2088 30.3585 84.2533L29.2921 73.5014C29.1496 72.0646 28.6336 69.8832 28.1174 68.5347L23.1037 55.4393L23.0748 52.8573L34.4676 52.4355C35.4546 52.3991 36.3579 51.9991 36.9463 51.3384C37.4193 50.8074 37.6503 50.1454 37.5973 49.4741C37.478 47.9642 35.9747 46.7604 34.175 46.733ZM26.5132 86.7868V86.7872V86.7868Z" fill="#AD2131"/>
<path d="M12.2824 28.6729C13.2482 28.6729 14.2032 28.5082 15.1207 28.1832C17.2626 27.425 18.9813 25.8781 19.9597 23.8273C20.6132 22.4576 20.8821 20.9727 20.7641 19.499L22.9097 19.2568C24.1709 19.1143 25.4511 18.1085 25.8874 16.917L26.562 15.0748C26.8208 14.3677 26.7526 13.6519 26.3747 13.1111C26.0063 12.5837 25.3855 12.2814 24.6719 12.2814C24.5889 12.2814 24.5033 12.2854 24.4155 12.2938L16.879 13.0108C15.5364 12.1469 13.9493 11.6562 12.2815 11.6562C11.3162 11.6562 10.3611 11.8208 9.44343 12.1458C5.02181 13.7116 2.69817 18.5824 4.26381 23.0034C5.46413 26.3945 8.68675 28.6729 12.2824 28.6729Z" fill="#AD2131"/>
<path d="M46.6949 30.3912C46.5711 28.6138 45.0211 27.168 43.2333 27.168L29.0011 27.1927C28.1055 27.1942 27.2822 27.5496 26.6828 28.1931C26.0836 28.8369 25.7876 29.6833 25.85 30.5768L26.5727 40.9634C26.6962 42.741 28.2464 44.1869 30.0287 44.1869L44.2664 44.1619C45.1621 44.1604 45.9854 43.8054 46.5848 43.1617C47.1842 42.5182 47.4802 41.6715 47.4178 40.7778L46.6949 30.3912Z" fill="#AD2131"/>
<path d="M81.2198 31.4984C86.156 31.4984 90.1722 27.4825 90.1722 22.546C90.1722 17.6097 86.156 13.5938 81.2198 13.5938C76.2835 13.5938 72.2676 17.6097 72.2676 22.546C72.2676 27.4825 76.2835 31.4984 81.2198 31.4984Z" fill="#AD2131"/>
<path d="M99.2377 44.4271L93.1068 35.885C92.3561 34.8389 90.7836 33.6328 88.1429 33.6328C84.4442 33.6328 73.3484 33.6328 73.3484 33.6328C72.0318 33.6328 70.3089 34.3013 69.4225 34.7513L64.715 37.142C64.266 37.3699 63.5515 37.5117 62.85 37.5117C62.3545 37.5117 61.8987 37.4433 61.5667 37.3194L53.95 34.4744C53.5942 34.3416 53.2364 34.2743 52.8865 34.2743C51.4426 34.2743 50.3945 35.3963 50.3945 36.9421V37.5177C50.3945 39.1855 51.6198 40.9448 53.1841 41.5235L60.9117 44.3814C61.6102 44.6397 62.5213 44.782 63.4772 44.782C64.3413 44.782 65.1688 44.662 65.8074 44.4445L71.8042 42.4006V84.3734C71.8042 86.5629 73.5856 88.3443 75.7751 88.3443H76.7049C78.8944 88.3443 80.6758 86.5629 80.6758 84.3734V63.4731H81.7623V84.3734C81.7623 86.5629 83.5437 88.3443 85.7332 88.3443H86.6629C88.8524 88.3443 90.6338 86.5629 90.6338 84.3734V58.9714C92.156 58.8497 93.8335 57.8825 94.6438 56.626L99.3592 49.314C100.258 47.9206 100.204 45.7741 99.2377 44.4271ZM90.634 43.4061L92.6938 46.3622C93.122 46.9766 93.1176 48.0929 92.6845 48.704L90.634 51.5981V43.4061Z" fill="#AD2131"/>
</g>
<defs>
<clipPath id="clip0_2994_12768">
<rect width="100" height="100" fill="white"/>
</clipPath>
</defs>
</svg>
