<svg width="100" height="100" viewBox="0 0 100 100" fill="none" xmlns="http://www.w3.org/2000/svg">
<path d="M36.074 47.1238L29.1225 47.0172C28.5236 47.0079 27.9168 46.4809 27.8237 45.8892L26.2324 35.773C26.1326 35.1388 25.8804 34.7028 25.5708 34.419C24.9946 33.5989 24.0261 33.0724 22.9521 33.1202L14.1744 33.5025C12.486 33.576 11.1127 35.011 11.1133 36.701L11.1207 57.7334C11.1207 57.7841 11.1255 57.8332 11.1281 57.883C11.1273 57.9084 11.1244 57.9329 11.1242 57.9585C11.118 59.0681 11.0595 60.9155 10.9937 62.0768L10.7083 67.1307C10.6484 68.191 10.2352 69.9074 9.80619 70.8786L6.25277 78.9204C5.91032 79.6952 5.91615 80.5517 6.26831 81.2704C6.62066 81.9891 7.2943 82.5183 8.11646 82.7223L8.45483 82.8064C8.71206 82.8702 8.98113 82.9027 9.25466 82.9027C10.6489 82.9027 11.9826 82.0935 12.5734 80.8891L15.894 74.1206C16.4386 73.0106 17.1167 71.1289 17.4056 69.926L19.2883 62.0835L23.8627 69.079C24.4179 69.9281 25.0049 71.5577 25.1189 72.5658L25.9995 80.3659C26.1846 82.0071 27.6795 83.3424 29.3318 83.3424L29.8282 83.3407C30.6733 83.3376 31.4416 83.0004 31.9916 82.3908C32.5416 81.7811 32.7988 80.9825 32.7155 80.1417L31.777 70.68C31.6516 69.4156 31.1976 67.496 30.7433 66.3093L26.3313 54.7854L26.3058 52.5132L36.3315 52.142C37.2 52.11 37.995 51.758 38.5127 51.1766C38.929 50.7093 39.1323 50.1267 39.0856 49.536C38.9806 48.2073 37.6577 47.1479 36.074 47.1238ZM29.3316 82.3712V82.3715V82.3712Z" fill="#AD2131"/>
<path d="M16.8084 31.2325C17.6583 31.2325 18.4987 31.0876 19.3061 30.8016C21.191 30.1344 22.7035 28.7731 23.5645 26.9684C24.1395 25.763 24.3762 24.4563 24.2723 23.1595L26.1605 22.9463C27.2703 22.8209 28.3969 21.9358 28.7808 20.8873L29.3745 19.2662C29.6022 18.6439 29.5422 18.014 29.2097 17.5381C28.8855 17.074 28.3392 16.808 27.7112 16.808C27.6382 16.808 27.5628 16.8115 27.4856 16.8189L20.8534 17.4499C19.672 16.6896 18.2753 16.2578 16.8076 16.2578C15.9582 16.2578 15.1177 16.4027 14.3101 16.6887C10.4191 18.0666 8.37431 22.3529 9.75207 26.2433C10.8084 29.2275 13.6443 31.2325 16.8084 31.2325Z" fill="#AD2131"/>
<path d="M47.091 32.7427C46.982 31.1786 45.618 29.9062 44.0447 29.9062L31.5204 29.928C30.7323 29.9293 30.0078 30.2421 29.4803 30.8083C28.953 31.3749 28.6925 32.1197 28.7474 32.906L29.3834 42.0462C29.4921 43.6105 30.8563 44.8829 32.4247 44.8829L44.9539 44.8609C45.7421 44.8596 46.4666 44.5472 46.9941 43.9807C47.5215 43.4144 47.782 42.6693 47.7271 41.8829L47.091 32.7427Z" fill="#AD2131"/>
<path d="M77.4736 33.7209C81.8175 33.7209 85.3518 30.1869 85.3518 25.8428C85.3518 21.4988 81.8175 17.9648 77.4736 17.9648C73.1297 17.9648 69.5957 21.4988 69.5957 25.8428C69.5957 30.1869 73.1297 33.7209 77.4736 33.7209Z" fill="#AD2131"/>
<path d="M93.3297 45.0966L87.9345 37.5796C87.2739 36.659 85.8901 35.5977 83.5662 35.5977C80.3114 35.5977 70.5471 35.5977 70.5471 35.5977C69.3885 35.5977 67.8723 36.1859 67.0923 36.5819L62.9497 38.6858C62.5546 38.8863 61.9258 39.0111 61.3085 39.0111C60.8725 39.0111 60.4714 38.9509 60.1792 38.8419L53.4765 36.3383C53.1634 36.2214 52.8485 36.1622 52.5406 36.1622C51.27 36.1622 50.3477 37.1495 50.3477 38.5098V39.0164C50.3477 40.484 51.4259 42.0322 52.8025 42.5415L59.6028 45.0564C60.2175 45.2837 61.0192 45.409 61.8604 45.409C62.6208 45.409 63.349 45.3034 63.911 45.112L69.1882 43.3133V80.2494C69.1882 82.1761 70.7558 83.7438 72.6826 83.7438H73.5008C75.4276 83.7438 76.9952 82.1761 76.9952 80.2494V61.8571H77.9513V80.2494C77.9513 82.1761 79.5189 83.7438 81.4457 83.7438H82.2638C84.1906 83.7438 85.7582 82.1761 85.7582 80.2494V57.8956C87.0978 57.7885 88.574 56.9374 89.287 55.8317L93.4366 49.3971C94.2275 48.1709 94.18 46.282 93.3297 45.0966ZM85.7584 44.1982L87.571 46.7995C87.9479 47.3402 87.944 48.3225 87.5629 48.8603L85.7584 51.4071V44.1982Z" fill="#AD2131"/>
</svg>
