<svg viewBox="0 0 123 118" xmlns="http://www.w3.org/2000/svg">
   <path fill="#f1f0ed"
      d="M60.05 68.41 18.02 46.33 6.2 60.47l44.74 23.65 9.11-15.71zm3.25-44.94L21.12 44.39 62.24 66l41.2-21.65-23.63-12.36-16.51-8.52zM15.89 43.95.39 29.27a1.58 1.58 0 0 1 .45-2.44L47.95.18c.75-.4 1.68-.12 2.1.61l13.23 18.22L72.1 2.49a1.57 1.57 0 0 1 2.13-.66l47.8 25.27a1.58 1.58 0 0 1 .37 2.52l-14.16 13.91 13.71 16.41a1.57 1.57 0 0 1-.52 2.43l-12.31 6.51v24.4c0 .66-.4 1.22-.98 1.46l-44.51 22.59a1.58 1.58 0 0 1-2.58-.35l-44.59-22.3a1.58 1.58 0 0 1-.87-1.41V69L3.05 62.37a1.57 1.57 0 0 1-.52-2.43l13.36-15.99zm44.95-22.89L48.11 3.67 4.07 28.7l14.39 13.4 42.38-21.04zm4.91.02L80.5 28.8l25.08 12.93 13.07-12.84-44.5-23.54-8.4 15.73zm40.72 25.25L64.44 68.41l9.11 15.7 44.74-23.65-11.82-14.13z" />
</svg>