<svg viewBox="0 0 123 118" xmlns="http://www.w3.org/2000/svg">
   <path fill="#f1f0ed"
      d="M60.05 68.41 18.02 46.33 6.2 60.47l44.74 23.65 9.11-15.71zm3.25-44.94L21.12 44.39 62.24 66l41.2-21.65-23.63-12.36-16.51-8.52zM15.89 43.95.39 29.27a1.58 1.58 0 0 1 .45-2.44L47.95.18c.75-.4 1.68-.12 2.1.61l13.23 18.22L72.1 2.49a1.57 1.57 0 0 1 2.13-.66l47.8 25.27a1.58 1.58 0 0 1 .37 2.52l-14.16 13.91 13.71 16.41a1.57 1.57 0 0 1-.52 2.43l-12.31 6.51v24.4c0 .66-.4 1.22-.98 1.46l-44.51 22.59a1.58 1.58 0 0 1-2.58-.35l-44.59-22.3a1.58 1.58 0 0 1-.87-1.41V69L3.05 62.37a1.57 1.57 0 0 1-.52-2.43l13.36-15.99zm44.95-22.89L48.11 3.67 4.07 28.7l14.39 13.4 42.38-21.04zm4.91.02L80.5 28.8l25.08 12.93 13.07-12.84-44.5-23.54-8.4 15.73zm40.72 25.25L64.44 68.41l9.11 15.7 44.74-23.65-11.82-14.13z" />
   <g transform="translate(60 60)">
      <g transform="translate(-50 -50)">
         <g>
            <animateTransform attributeName="transform" type="translate" repeatCount="indefinite" dur="4s"
               values="-20 -20;20 -20;0 20;-20 -20" keyTimes="0;0.33;0.66;1">
            </animateTransform>
            <path fill="#f1f0ed22"
               d="M44.19 26.158c-4.817 0-9.345 1.876-12.751 5.282c-3.406 3.406-5.282 7.934-5.282 12.751 c0 4.817 1.876 9.345 5.282 12.751c3.406 3.406 7.934 5.282 12.751 5.282s9.345-1.876 12.751-5.282 c3.406-3.406 5.282-7.934 5.282-12.751c0-4.817-1.876-9.345-5.282-12.751C53.536 28.033 49.007 26.158 44.19 26.158z">
            </path>
            <path fill="#a6a6a6"
               d="M78.712 72.492L67.593 61.373l-3.475-3.475c1.621-2.352 2.779-4.926 3.475-7.596c1.044-4.008 1.044-8.23 0-12.238 c-1.048-4.022-3.146-7.827-6.297-10.979C56.572 22.362 50.381 20 44.19 20C38 20 31.809 22.362 27.085 27.085 c-9.447 9.447-9.447 24.763 0 34.21C31.809 66.019 38 68.381 44.19 68.381c4.798 0 9.593-1.425 13.708-4.262l9.695 9.695 l4.899 4.899C73.351 79.571 74.476 80 75.602 80s2.251-0.429 3.11-1.288C80.429 76.994 80.429 74.209 78.712 72.492z M56.942 56.942 c-3.406 3.406-7.934 5.282-12.751 5.282s-9.345-1.876-12.751-5.282c-3.406-3.406-5.282-7.934-5.282-12.751 c0-4.817 1.876-9.345 5.282-12.751c3.406-3.406 7.934-5.282 12.751-5.282c4.817 0 9.345 1.876 12.751 5.282 c3.406 3.406 5.282 7.934 5.282 12.751C62.223 49.007 60.347 53.536 56.942 56.942z">
            </path>
         </g>
      </g>
   </g>
</svg>