<svg viewBox="0 0 123 118" xmlns="http://www.w3.org/2000/svg">
   <style>
      .text {
         font: 10px Montserrat;
         fill: #A6A6A6;
      }
   </style>
   <path fill="#f1f0ed"
      d="M60.05 68.41 18.02 46.33 6.2 60.47l44.74 23.65 9.11-15.71zm3.25-44.94L21.12 44.39 62.24 66l41.2-21.65-23.63-12.36-16.51-8.52zM15.89 43.95.39 29.27a1.58 1.58 0 0 1 .45-2.44L47.95.18c.75-.4 1.68-.12 2.1.61l13.23 18.22L72.1 2.49a1.57 1.57 0 0 1 2.13-.66l47.8 25.27a1.58 1.58 0 0 1 .37 2.52l-14.16 13.91 13.71 16.41a1.57 1.57 0 0 1-.52 2.43l-12.31 6.51v24.4c0 .66-.4 1.22-.98 1.46l-44.51 22.59a1.58 1.58 0 0 1-2.58-.35l-44.59-22.3a1.58 1.58 0 0 1-.87-1.41V69L3.05 62.37a1.57 1.57 0 0 1-.52-2.43l13.36-15.99zm44.95-22.89L48.11 3.67 4.07 28.7l14.39 13.4 42.38-21.04zm4.91.02L80.5 28.8l25.08 12.93 13.07-12.84-44.5-23.54-8.4 15.73zm40.72 25.25L64.44 68.41l9.11 15.7 44.74-23.65-11.82-14.13z" />
   <text x="48" y="48" class="text">Пусто</text>
   <g>
      <animateTransform attributeName="transform" type="translate" repeatCount="indefinite" dur="4s"
         values="32 5;45 5;32 5" keyTimes="0;0.5;1">
      </animateTransform>
      <path
         d="M25.36 25.44c-4.25 0-8.25 1.65-11.26 4.66a15.82 15.82 0 0 0-4.66 11.26c0 4.26 1.65 8.26 4.66 11.26 3 3 7 4.67 11.26 4.67s8.26-1.65 11.26-4.67c3-3 4.67-7 4.67-11.26a15.8 15.8 0 0 0-4.67-11.26 15.8 15.8 0 0 0-11.26-4.66Z"
         fill="#A6A6A6" fill-opacity=".4" />
      <path
         d="m55.85 66.37-9.81-9.84-3.07-3.07a21.46 21.46 0 0 0 3.07-17.51 21.26 21.26 0 0 0-12.5-14.33 21.36 21.36 0 1 0 3.93 37.35l8.57 8.56 4.32 4.33a3.88 3.88 0 0 0 6.34-4.24c-.2-.47-.48-.9-.84-1.26h-.01ZM36.62 52.6c-3 3-7 4.67-11.26 4.67A15.8 15.8 0 0 1 14.1 52.6a15.82 15.82 0 0 1-4.66-11.26A15.8 15.8 0 0 1 14.1 30.1c3-3 7-4.66 11.26-4.66s8.26 1.65 11.26 4.66c3 3 4.67 7 4.67 11.26s-1.66 8.26-4.67 11.26Z"
         fill="#A6A6A6" />
   </g>
</svg>