<svg width="30" height="30" viewBox="0 0 30 30" fill="none" xmlns="http://www.w3.org/2000/svg"><path d="M27.84 14.01c-.22-.3-5.54-7.48-12.34-7.48S3.38 13.71 3.16 14.01a.82.82 0 0 0 0 .97c.22.31 5.54 7.49 12.34 7.49s12.12-7.18 12.34-7.49a.82.82 0 0 0 0-.97Zm-12.34 6.8c-5 0-9.34-4.76-10.63-6.31 1.29-1.56 5.61-6.32 10.63-6.32 5 0 9.34 4.76 10.63 6.32-1.29 1.56-5.61 6.32-10.63 6.32Z" fill="#fff"/><path d="M15.5 9.55a4.95 4.95 0 1 0 .01 9.9 4.95 4.95 0 0 0-.01-9.9Zm0 8.25a3.3 3.3 0 1 1 0-6.6 3.3 3.3 0 0 1 0 6.6Z" fill="#fff"/></svg>