<svg width="22" height="22" fill="none" xmlns="http://www.w3.org/2000/svg">
    <path
        d="M18.07 3.93A9.93 9.93 0 0 0 11.03 1a10 10 0 1 0 7.04 2.93ZM11.58 19.3v-3.58c.92.06 1.8.26 2.64.59a10.98 10.98 0 0 1-2.64 3Zm0-4.75v-2.97h4.11c-.08 1.28-.4 2.52-.93 3.68-1-.4-2.07-.65-3.18-.71Zm0-4.14V7.45c1.1-.06 2.18-.3 3.18-.72.53 1.16.85 2.41.93 3.68h-4.1Zm0-4.14V2.7c1.07.84 1.96 1.86 2.64 3-.84.33-1.72.53-2.64.58Zm1.48-3.86a8.8 8.8 0 0 1 3.6 1.83c-.43.36-.9.68-1.38.95a12.16 12.16 0 0 0-2.22-2.78Zm-2.65.35v3.51a8.8 8.8 0 0 1-2.56-.55 10.98 10.98 0 0 1 2.56-2.96ZM6.78 5.22c-.51-.28-1-.6-1.45-.98a8.8 8.8 0 0 1 3.71-1.85c-.9.83-1.66 1.79-2.26 2.83Zm3.63 2.23v2.96H6.4c.07-1.26.39-2.5.91-3.65.99.4 2.03.63 3.11.69Zm0 4.13v2.97c-1.08.06-2.12.3-3.11.69a10.34 10.34 0 0 1-.91-3.66h4.02Zm0 4.14v3.52a10.98 10.98 0 0 1-2.56-2.96 8.8 8.8 0 0 1 2.56-.56Zm-1.37 3.89a8.8 8.8 0 0 1-3.7-1.85c.44-.38.93-.7 1.44-.99.6 1.05 1.37 2 2.26 2.84Zm6.24-2.8c.49.27.95.59 1.38.95a8.8 8.8 0 0 1-3.6 1.82c.88-.81 1.62-1.75 2.22-2.77Zm.54-1.04c.6-1.32.97-2.74 1.04-4.19h2.95a8.8 8.8 0 0 1-2.3 5.37 10 10 0 0 0-1.69-1.18Zm3.99-5.36h-2.95a11.5 11.5 0 0 0-1.04-4.18 10 10 0 0 0 1.7-1.18 8.8 8.8 0 0 1 2.29 5.36ZM4.48 5.05a10 10 0 0 0 1.76 1.21 11.5 11.5 0 0 0-1.03 4.15H2.2a8.8 8.8 0 0 1 2.3-5.36ZM2.2 11.58h3.02a11.5 11.5 0 0 0 1.03 4.15 10 10 0 0 0-1.76 1.22 8.8 8.8 0 0 1-2.29-5.37Z"
        fill="CurrentColor" />
</svg>