<svg width="30" height="30" viewBox="0 0 30 30" fill="none" xmlns="http://www.w3.org/2000/svg">
    <path
        d="M14.53 7.56c2.3 0 2.56 0 3.42.04.82.05 1.3.18 1.6.3.4.18.7.35 1 .65.3.3.48.57.65 1 .13.3.26.74.3 1.6.05.91.05 1.17.05 3.42 0 2.3 0 2.56-.05 3.43-.04.82-.17 1.3-.3 1.6-.17.39-.35.69-.65 1-.3.3-.56.47-1 .64-.3.13-.73.26-1.6.3-.9.05-1.17.05-3.42.05-2.3 0-2.55 0-3.42-.04a4.66 4.66 0 0 1-1.6-.3c-.4-.18-.7-.35-1-.66-.3-.3-.47-.56-.65-1-.13-.3-.26-.73-.3-1.6-.04-.9-.04-1.16-.04-3.42 0-2.3 0-2.55.04-3.42.04-.82.17-1.3.3-1.6.18-.39.35-.7.65-1 .3-.3.56-.47 1-.64.3-.13.73-.26 1.6-.3.9-.05 1.17-.05 3.42-.05Zm0-1.56c-2.3 0-2.6 0-3.5.04-.92.05-1.52.18-2.09.4-.56.21-1.03.51-1.51.99s-.78.95-1 1.51a6.34 6.34 0 0 0-.39 2.08C6 11.93 6 12.24 6 14.53c0 2.3 0 2.6.04 3.5.05.92.18 1.52.4 2.09.21.56.51 1.04.99 1.51.48.48.95.78 1.51 1 .57.22 1.17.35 2.08.39.91.04 1.22.04 3.51.04 2.3 0 2.6 0 3.5-.04.92-.04 1.52-.17 2.09-.4a4.19 4.19 0 0 0 1.51-.99c.48-.47.78-.95 1-1.51.22-.57.35-1.17.39-2.08.04-.91.04-1.21.04-3.5 0-2.3 0-2.6-.04-3.52a6.34 6.34 0 0 0-.4-2.08 4.19 4.19 0 0 0-.99-1.51 4.19 4.19 0 0 0-1.51-1 6.34 6.34 0 0 0-2.08-.39C17.17 6 16.87 6 14.54 6Z"
        fill="CurrentColor" />
    <path
        d="M14.53 10.16a4.36 4.36 0 0 0-4.37 4.37 4.36 4.36 0 0 0 4.37 4.37 4.36 4.36 0 0 0 4.37-4.37 4.36 4.36 0 0 0-4.37-4.37Zm0 7.19a2.86 2.86 0 1 1 2.86-2.86c0 1.6-1.26 2.86-2.86 2.86ZM20.12 9.98c0 .57-.48 1.04-1.04 1.04-.57 0-1.04-.47-1.04-1.04 0-.56.47-1.04 1.04-1.04.56 0 1.04.48 1.04 1.04Z"
        fill="CurrentColor" />
</svg>