<svg width="30" height="30" viewBox="0 0 30 30" fill="none" xmlns="http://www.w3.org/2000/svg">
    <path
        d="M3 4a1 1 0 0 0-1 1v2a1 1 0 0 0 1 1h2a1 1 0 0 0 1-1V5a1 1 0 0 0-1-1H3Zm5.75 1.25a.75.75 0 0 0 0 1.5h17.5a.75.75 0 0 0 0-1.5H8.75ZM2 14a1 1 0 0 1 1-1h2a1 1 0 0 1 1 1v2a1 1 0 0 1-1 1H3a1 1 0 0 1-1-1v-2Zm6.75.25a.75.75 0 0 0 0 1.5h17.5a.75.75 0 0 0 0-1.5H8.75ZM2 23a1 1 0 0 1 1-1h2a1 1 0 0 1 1 1v2a1 1 0 0 1-1 1H3a1 1 0 0 1-1-1v-2Zm6.75.25a.75.75 0 0 0 0 1.5h17.5a.75.75 0 0 0 0-1.5H8.75Z"
        fill="CurrentColor" />
</svg>