<svg width="160" height="39" viewBox="0 0 160 39" fill="none" xmlns="http://www.w3.org/2000/svg">
    <path
        d="M5.08 38.58H.94V22.82h10.39a9.8 9.8 0 0 1 2.84.36c.78.24 1.41.57 1.9 1 .49.44.84.97 1.06 1.59a5.95 5.95 0 0 1 .05 3.8 3.99 3.99 0 0 1-1.8 2.17 7.2 7.2 0 0 1-1.3.61l5.02 6.23h-4.84l-4.65-5.8H5.08v5.8Zm8.2-10.78c0-.3-.05-.57-.13-.78a1 1 0 0 0-.4-.52c-.2-.13-.46-.23-.78-.3a6.6 6.6 0 0 0-1.21-.09H5.08v3.37h5.68c.48 0 .89-.03 1.2-.09.33-.06.6-.15.79-.28.2-.14.33-.32.4-.53.08-.22.12-.48.12-.78ZM25.74 38.58V22.82h15.53v3.36H30v2.6h10.7v3.36H30v3.08h11.44v3.36h-15.7ZM58.99 22.42a22.21 22.21 0 0 1 7.75 1.41v3.85a13.62 13.62 0 0 0-3.17-1.31 16.42 16.42 0 0 0-4.27-.59c-.98 0-1.84.07-2.57.22-.73.14-1.35.34-1.87.58a4.61 4.61 0 0 0-2.08 1.9c-.2.36-.33.74-.4 1.12a5.8 5.8 0 0 0-.03 2.13 4.35 4.35 0 0 0 2.31 3.05c.51.26 1.12.47 1.83.63a15.61 15.61 0 0 0 4.8.06c.3-.05.59-.12.85-.2l.83-.24v-1.9h-4.65v-3.45h8.79v8.05c-.55.19-1.17.36-1.85.53-.68.15-1.39.28-2.12.38a29.78 29.78 0 0 1-4.24.36c-1 0-1.97-.07-2.9-.2-.92-.14-1.78-.35-2.59-.64a10.2 10.2 0 0 1-2.19-1.1 7.18 7.18 0 0 1-1.68-1.58 7.21 7.21 0 0 1-1.09-2.1 8.78 8.78 0 0 1-.38-2.67c0-.98.14-1.86.4-2.66a7.08 7.08 0 0 1 2.86-3.69c.67-.44 1.41-.8 2.22-1.09.81-.29 1.67-.5 2.59-.64.92-.14 1.87-.2 2.85-.2ZM75.24 38.58V22.82h4.14v15.76h-4.14ZM102.36 38.58 92 27.75v10.83h-4.14V22.82h4.5l10.37 10.87V22.82h4.12v15.76h-4.5ZM135.18 30.71a8.4 8.4 0 0 1-.73 3.59 6.96 6.96 0 0 1-2.08 2.6c-.9.69-2 1.21-3.28 1.57-1.28.35-2.72.53-4.33.53-1.6 0-3.05-.18-4.34-.53a9.6 9.6 0 0 1-3.3-1.58c-.9-.7-1.6-1.56-2.1-2.59a8.3 8.3 0 0 1-.73-3.59c0-1.35.24-2.54.73-3.58.5-1.04 1.2-1.9 2.1-2.6.91-.7 2.01-1.22 3.3-1.57 1.3-.36 2.74-.54 4.34-.54 1.6 0 3.05.18 4.33.54 1.29.35 2.38.88 3.28 1.57.9.7 1.6 1.56 2.08 2.6.49 1.04.73 2.23.73 3.58Zm-4.2 0c0-.59-.09-1.17-.27-1.75a3.75 3.75 0 0 0-.97-1.59 5.04 5.04 0 0 0-1.9-1.13 9.17 9.17 0 0 0-3.08-.44c-.83 0-1.56.07-2.2.21-.63.13-1.18.31-1.64.55a4.42 4.42 0 0 0-1.9 1.86c-.2.36-.33.74-.41 1.13a6.12 6.12 0 0 0 0 2.34 4.11 4.11 0 0 0 2.31 2.98c.46.23 1.01.42 1.64.55.64.13 1.37.2 2.2.2 1.25 0 2.27-.15 3.08-.44.8-.29 1.43-.67 1.9-1.13.47-.47.79-1 .97-1.57.18-.6.28-1.18.28-1.77ZM152.66 30.5l7.28 8.08h-4.97l-4.8-5.31-4.79 5.3h-4.96l7.28-8.08-6.92-7.67h4.97l4.41 4.93 4.44-4.93h4.97l-6.91 7.67Z"
        fill="CurrentColor" />
    <path
        d="m67.13 6.75 3.76 7.86 17.2-.1 3.7-8.16h-3.46l-2.29 4.32h-4.6V6.75H77.6v3.92h-4.76L70.9 6.75h-3.77ZM70.9 20.18V17.1h17.48v3.1H70.89Z"
        fill="#AD2131" />
    <ellipse cx="67.93" cy="2.45" rx="2.39" ry="2.45" fill="#AD2131" />
    <ellipse cx="79.47" cy="2.45" rx="2.39" ry="2.45" fill="#AD2131" />
    <ellipse cx="91" cy="2.45" rx="2.39" ry="2.45" fill="#AD2131" />
</svg>