<svg width="22" height="22" viewBox='0 0 22 22' fill="none" xmlns="http://www.w3.org/2000/svg">
    <path fill-rule="evenodd" clip-rule="evenodd"
        d="M19.25 5H2.75C1.8 5 1 5.79 1 6.76v9.26a1.76 1.76 0 0 0 .75 1.43c.29.2.64.32 1 .32h16.5c.38 0 .72-.11 1-.31h.01a1.76 1.76 0 0 0 .75-1.44V6.76c0-.97-.79-1.76-1.76-1.76ZM2.17 6.76v9.26c0 .04 0 .08.02.12l6.03-4.8-6.04-4.69v.1Zm7.75 5.91-.75-.59-5.68 4.52h15.03l-5.68-4.52-.75.59a1.76 1.76 0 0 1-2.17 0Zm9.9-6.02-6.03 4.7 6.03 4.8.02-.13V6.76l-.01-.11ZM3.49 6.17l6.05 4.7 1.11.88c.22.16.51.16.73 0l1.11-.88 6.05-4.7H3.48Z"
        fill="CurrentColor" />
</svg>