<svg width="30" height="30" viewBox="0 0 30 30" fill="none" xmlns="http://www.w3.org/2000/svg">
    <path fill-rule="evenodd" clip-rule="evenodd"
        d="M0.000305176 6.93749C0.000305176 6.41973 0.420035 6 0.937797 6H29.0625C29.5803 6 30 6.41973 30 6.93749C30 7.45525 29.5803 7.87498 29.0625 7.87498H0.937797C0.420034 7.87498 0.000305176 7.45525 0.000305176 6.93749ZM0 15.4922C0 14.9744 0.419729 14.5547 0.937492 14.5547H29.0622C29.58 14.5547 29.9997 14.9744 29.9997 15.4922C29.9997 16.0099 29.58 16.4297 29.0622 16.4297H0.937491C0.419729 16.4297 0 16.0099 0 15.4922ZM0.937492 23.0703C0.419729 23.0703 0 23.49 0 24.0078C0 24.5256 0.419729 24.9453 0.937491 24.9453H29.0622C29.58 24.9453 29.9997 24.5256 29.9997 24.0078C29.9997 23.49 29.58 23.0703 29.0622 23.0703H0.937492Z"
        fill="CurrentColor" />

</svg>