<svg width="26" height="26" viewBox="0 0 26 26" fill="none" xmlns="http://www.w3.org/2000/svg">
<path fill="CurrentColor" d="M7.85417 23.8334C7.3125 23.8334 6.85209 23.6438 6.47292 23.2646C6.09375 22.8854 5.90417 22.425 5.90417 21.8834C5.90417 21.3417 6.09375 20.8813 6.47292 20.5021C6.85209 20.1229 7.3125 19.9334 7.85417 19.9334C8.39584 19.9334 8.85625 20.1229 9.23542 20.5021C9.61458 20.8813 9.80417 21.3417 9.80417 21.8834C9.80417 22.425 9.61458 22.8854 9.23542 23.2646C8.85625 23.6438 8.39584 23.8334 7.85417 23.8334ZM18.7958 23.8334C18.2542 23.8334 17.7938 23.6438 17.4146 23.2646C17.0354 22.8854 16.8458 22.425 16.8458 21.8834C16.8458 21.3417 17.0354 20.8813 17.4146 20.5021C17.7938 20.1229 18.2542 19.9334 18.7958 19.9334C19.3375 19.9334 19.7979 20.1229 20.1771 20.5021C20.5563 20.8813 20.7458 21.3417 20.7458 21.8834C20.7458 22.425 20.5563 22.8854 20.1771 23.2646C19.7979 23.6438 19.3375 23.8334 18.7958 23.8334ZM7.85417 18.2271C7.09584 18.2271 6.54063 17.9202 6.18854 17.3063C5.83646 16.6924 5.84097 16.0695 6.20209 15.4375L7.85417 12.4313L3.79167 3.79169H1.67917V2.16669H4.82084L9.425 12.025H17.3333L21.5583 4.44169L22.9667 5.20002L18.8229 12.7021C18.6604 13.009 18.4392 13.2438 18.1594 13.4063C17.8795 13.5688 17.55 13.65 17.1708 13.65H9.04584L7.36667 16.6021H20.7458V18.2271H7.85417Z M9.23542 6.06669V4.44169H17.55V6.06669H9.23542Z"/>
</svg>
