<svg width="50" height="48" fill="none" aria-hidden='true' xmlns="http://www.w3.org/2000/svg">
   <rect x="19.14" y=".75" width="30.11" height="40.65" rx="3.25" fill="#fff" stroke="#666565" stroke-width="1.5" />
   <rect x="12.55" y="6.02" width="30.11" height="40.65" rx="3.25" fill="#fff" stroke="#666565" stroke-width="1.5" />
   <rect y="21" width="31" height="16" rx="4" fill="#AD2131" />
   <path
      d="M6.88 33v-7.27h2.46c.57 0 1.04.1 1.4.3.36.21.63.49.8.83.18.35.27.74.27 1.17 0 .43-.09.82-.26 1.17-.18.35-.44.63-.8.83-.37.21-.83.31-1.4.31H7.6v-.78h1.73c.4 0 .7-.06.94-.2.24-.13.41-.32.52-.55.1-.23.16-.49.16-.78 0-.3-.05-.55-.16-.78-.1-.23-.28-.41-.52-.54-.24-.14-.55-.2-.95-.2H7.76V33h-.88Zm8.94 0h-2.24v-7.27h2.34c.7 0 1.31.14 1.81.43.5.3.89.7 1.16 1.25.26.54.4 1.19.4 1.94 0 .76-.14 1.4-.4 1.96-.28.54-.67.96-1.19 1.25-.51.3-1.14.44-1.88.44Zm-1.36-.78h1.3c.6 0 1.1-.12 1.5-.35.4-.23.7-.56.89-.99.19-.43.29-.94.29-1.53 0-.59-.1-1.1-.3-1.52-.18-.42-.47-.75-.85-.98a2.72 2.72 0 0 0-1.42-.34h-1.41v5.7Zm6.66.78v-7.27h4.36v.78H22v2.46h3.15v.78H22V33h-.88Z"
      fill="#fff" />
</svg>