<svg width="22" height="22" fill="none" xmlns="http://www.w3.org/2000/svg">
    <path
        d="M18.71 21c1.3 0 2.35-1.06 2.35-2.36v-3.15a.79.79 0 0 0-.54-.75l-4.71-1.57a.79.79 0 0 0-.69.09l-2 1.33A13.92 13.92 0 0 1 7.4 8.94l1.34-2c.13-.2.16-.46.09-.69L7.26 1.54A.79.79 0 0 0 6.51 1H3.36A2.36 2.36 0 0 0 1 3.35C1 7.7 2.98 12.17 6.43 15.6c3.45 3.43 7.92 5.4 12.28 5.4ZM3.36 2.57h2.59l1.27 3.81-1.36 2.05a.79.79 0 0 0-.08.73c.53 1.3 1.58 2.78 2.96 4.14a13.36 13.36 0 0 0 4.16 2.92c.24.1.52.07.73-.08l2.05-1.36 3.8 1.28v2.58c0 .44-.33.79-.77.79-8.3 0-16.13-7.82-16.13-16.08 0-.43.34-.78.78-.78Z"
        fill="CurrentColor" />
</svg>