<svg width="26" height="26" fill="none" xmlns="http://www.w3.org/2000/svg"><path d="M8.51 24c-.48 0-.9-.17-1.23-.5-.34-.33-.5-.73-.5-1.21 0-.47.16-.88.5-1.21.34-.33.75-.5 1.23-.5s.9.17 1.23.5c.34.33.51.74.51 1.21A1.7 1.7 0 0 1 8.51 24Zm9.77 0c-.49 0-.9-.17-1.24-.5-.33-.33-.5-.73-.5-1.21a1.7 1.7 0 0 1 1.74-1.71c.48 0 .9.17 1.23.5.34.33.5.74.5 1.21 0 .48-.16.88-.5 1.21-.34.33-.75.5-1.23.5ZM8.5 19.08c-.68 0-1.17-.27-1.49-.8a1.53 1.53 0 0 1 .02-1.64L8.5 14 4.9 6.42H3V5h2.8l4.11 8.64h7.06L20.74 7l1.26.67-3.7 6.58c-.14.27-.34.47-.6.62-.24.14-.53.21-.87.21H9.58l-1.5 2.59h11.94v1.42H8.52Z" fill="#666565"/><path d="m13 10.8.06.05.02.01.03.03.03.01.03.02.03.02h.03l.03.02.03.01h.03l.04.01h.03l.03.01.07.01h.07l.03-.01h.04l.03-.01h.04l.03-.02.03-.01.03-.01.04-.02.03-.02.02-.01c.02 0 .02-.01.03-.03l.03-.01.05-.04 2.8-2.7a.66.66 0 0 0 0-.95.73.73 0 0 0-1 0L14.2 8.69V2.68a.7.7 0 0 0-.7-.68.7.7 0 0 0-.71.68v6l-1.58-1.52a.73.73 0 0 0-1 0 .66.66 0 0 0 0 .96L13 10.8Z" fill="#666565"/></svg>