<svg width="65" height="41" viewBox="0 0 65 41" fill="none" xmlns="http://www.w3.org/2000/svg">
    <path fill-rule="evenodd" clip-rule="evenodd"
        d="M43.7411 13.3269C44.5847 13.0399 45.4283 13.2155 45.5928 13.7211C45.7573 14.2266 45.2006 14.8735 44.3274 15.1606C43.4543 15.4476 42.6402 15.2762 42.4757 14.7707C42.3112 14.2651 42.868 13.6182 43.7411 13.3269Z"
        fill="#E3051E" />
    <path fill-rule="evenodd" clip-rule="evenodd"
        d="M48.0394 12.0374C48.883 11.7503 49.7267 11.926 49.8869 12.4315C50.0472 12.937 49.4947 13.5797 48.6215 13.871C47.7484 14.1623 46.9343 13.9824 46.7698 13.4769C46.6053 12.9713 47.1663 12.3287 48.0352 12.0374"
        fill="#E3051E" />
    <path fill-rule="evenodd" clip-rule="evenodd"
        d="M50.2579 13.7339C51.1015 13.4425 51.9451 13.6182 52.1096 14.1237C52.2741 14.6293 51.7131 15.2762 50.8442 15.5632C49.9753 15.8503 49.157 15.6789 48.9967 15.1734C48.8364 14.6678 49.389 14.0209 50.2621 13.7339"
        fill="#E3051E" />
    <path fill-rule="evenodd" clip-rule="evenodd"
        d="M48.4063 16.4201C49.2499 16.1288 50.0935 16.3045 50.2538 16.81C50.4141 17.3155 49.8615 17.9625 48.9884 18.2495C48.1153 18.5365 47.3012 18.3652 47.1367 17.8596C46.9722 17.3541 47.5332 16.7072 48.4021 16.4201"
        fill="#E3051E" />
    <path fill-rule="evenodd" clip-rule="evenodd"
        d="M44.163 17.6754C45.0066 17.3841 45.8503 17.5597 46.0105 18.0652C46.1708 18.5708 45.6183 19.2177 44.7451 19.5047C43.872 19.7918 43.0579 19.6204 42.8934 19.1149C42.7289 18.6093 43.2899 17.9624 44.1588 17.6754"
        fill="#E3051E" />
    <path fill-rule="evenodd" clip-rule="evenodd"
        d="M41.8724 15.9617C42.716 15.6746 43.5596 15.8503 43.7199 16.3558C43.8802 16.8614 43.3276 17.504 42.4545 17.7953C41.5813 18.0867 40.7673 17.9067 40.6028 17.4012C40.4383 16.8956 40.9992 16.253 41.8682 15.9617"
        fill="#E3051E" />
    <path fill-rule="evenodd" clip-rule="evenodd"
        d="M25.3464 2.56921C44.2475 -2.91459 61.8325 0.684157 64.6248 10.5936C67.4172 20.503 54.3539 32.9872 35.4529 38.441C22.7987 42.1083 10.714 41.7013 3.28186 38.0511C11.5703 40.2447 23.3513 39.9876 33.4493 37.0615C50.1527 32.216 61.7102 21.1799 59.2299 12.4058C58.1333 8.50714 54.4594 5.70955 49.2501 4.23149C37.6294 0.936926 23.4483 3.40035 11.7095 8.22867L11.6167 8.26723C15.9623 5.83797 20.5694 3.926 25.3464 2.56921Z"
        fill="#E3051E" />
    <path
        d="M46.5672 24.8497C46.3605 25.9465 45.5548 26.9918 44.7112 26.9918C43.8676 26.9918 43.6441 26.255 43.6441 25.6337C43.6441 24.2328 44.61 22.759 45.9977 22.759C46.3139 22.7552 46.6273 22.8195 46.9173 22.9475L46.5672 24.8497ZM42.3829 29.828C42.9001 30.1115 43.4827 30.2491 44.0701 30.2264C44.76 30.2451 45.4346 30.0178 45.9766 29.5838C46.5587 29.0783 46.8709 28.2514 47.0986 27.0561L47.9422 22.382C47.3815 22.1284 46.776 21.9929 46.1622 21.9836C44.0152 21.9836 42.6233 23.8901 42.6359 25.8051C42.6359 26.8119 43.2096 27.7716 44.3232 27.7716C44.7266 27.7696 45.1219 27.656 45.4667 27.4432C45.8115 27.2304 46.0928 26.9262 46.2803 26.5634H46.3141L46.1285 27.4203C45.7953 28.954 45.0613 29.4424 44.1291 29.4424C43.6163 29.4498 43.1104 29.3213 42.6613 29.0697L42.3829 29.828ZM37.4224 27.7716L37.9286 25.0254C38.1817 23.6202 39.1476 22.789 39.8225 22.789C40.4974 22.789 40.6956 23.2174 40.6956 23.783C40.6929 24.0264 40.666 24.269 40.6155 24.507L40.0081 27.7716H40.9614L41.5814 24.4727C41.639 24.1732 41.6728 23.8695 41.6827 23.5645C41.6827 22.3735 40.9361 21.9879 40.2696 21.9879C39.8517 21.9971 39.4432 22.1154 39.0834 22.3315C38.7236 22.5476 38.4247 22.8542 38.2154 23.2217L38.3504 22.1121H37.5068C37.4351 22.5791 37.3676 23.1275 37.2411 23.7615L36.4945 27.7716H37.4224ZM35.6298 21.1439C35.715 21.1456 35.7997 21.1299 35.8788 21.0975C35.9578 21.0652 36.0297 21.017 36.09 20.9558C36.1502 20.8946 36.1977 20.8216 36.2295 20.7413C36.2613 20.661 36.2769 20.575 36.2751 20.4884C36.2817 20.4097 36.2718 20.3306 36.2462 20.256C36.2206 20.1815 36.1798 20.1133 36.1264 20.0559C36.0731 19.9985 36.0084 19.9531 35.9366 19.9228C35.8649 19.8925 35.7876 19.8779 35.7099 19.88C35.6261 19.8806 35.5433 19.898 35.4661 19.9314C35.389 19.9647 35.3192 20.0133 35.2607 20.0743C35.2023 20.1353 35.1563 20.2075 35.1255 20.2866C35.0947 20.3658 35.0798 20.4504 35.0814 20.5355C35.0744 20.6129 35.0833 20.6909 35.1077 20.7645C35.1321 20.8381 35.1713 20.9057 35.223 20.963C35.2746 21.0203 35.3375 21.066 35.4076 21.0971C35.4776 21.1283 35.5533 21.1442 35.6298 21.1439ZM34.7862 27.7716L35.8533 22.1121H34.9085L33.8371 27.7716H34.7862ZM31.7492 24.9783C31.5088 26.2635 30.623 27.1204 29.889 27.1204C29.0707 27.1204 28.843 26.4092 28.843 25.7323C28.843 24.2242 29.8764 22.7847 31.2093 22.7847C31.5309 22.7743 31.8491 22.8544 32.1288 23.0161L31.7492 24.9783ZM32.77 19.4688L32.2764 22.1807C31.9637 22.0486 31.6281 21.9815 31.2894 21.9836C29.3238 21.9836 27.8559 23.8301 27.8559 25.8394C27.8559 26.9961 28.4422 27.8958 29.5221 27.8958C29.9329 27.8809 30.3328 27.7577 30.6826 27.5384C31.0323 27.3191 31.32 27.0111 31.5172 26.6448H31.5425L31.3906 27.7673H32.2638C32.3085 27.1658 32.3902 26.5677 32.5084 25.9765L33.7443 19.4688H32.77ZM26.1518 27.7716L27.7167 19.4688H26.7424L25.1901 27.7716H26.1518ZM22.2375 22.7547C23.2372 22.7547 23.5367 23.6801 23.5367 24.3356C23.5367 25.6552 22.6931 27.1289 21.5584 27.1289C20.7443 27.1289 20.2508 26.4606 20.2508 25.5395C20.2466 24.2414 21.0438 22.7547 22.2375 22.7547ZM22.343 21.9836C20.5376 21.9836 19.2638 23.6973 19.2638 25.5738C19.2638 26.859 20.0441 27.9001 21.4319 27.9001C23.2962 27.9001 24.511 26.0879 24.511 24.3442C24.511 23.136 23.8446 21.9836 22.3556 21.9836H22.343ZM13.4977 19.8929L12.013 27.7716H12.9663L13.658 24.0657H17.218L16.5305 27.7716H17.4838L18.9812 19.8929H17.9984L17.3783 23.2132H13.8183L14.451 19.8929H13.4977ZM8.28001 20.6983C8.54405 20.6364 8.81479 20.6091 9.08566 20.6169C9.95879 20.6169 10.5788 20.9896 10.5788 21.8336C10.5788 22.7805 9.79851 23.5859 8.59215 23.5859H7.74854L8.28001 20.6983ZM6.00649 27.7716H6.95977L7.59247 24.3442H8.43608C9.20376 24.3442 9.59604 24.7983 9.65087 25.8737C9.68003 26.512 9.74198 27.1484 9.83647 27.7801H10.8235C10.6852 27.0741 10.6048 26.3576 10.5831 25.638C10.524 24.8197 10.2625 24.2371 9.73945 24.0486V24.0229C10.2486 23.8982 10.7037 23.6082 11.0356 23.1968C11.3676 22.7854 11.5582 22.2752 11.5785 21.7437C11.5782 21.5004 11.5269 21.2599 11.428 21.0383C11.3291 20.8167 11.1848 20.619 11.0049 20.4584C10.4771 20.0443 9.81863 19.8402 9.15315 19.8843C8.58632 19.8844 8.02099 19.9433 7.46593 20.06L6.00649 27.7716ZM2.27352 20.6983C2.53756 20.6364 2.8083 20.6091 3.07917 20.6169C3.9523 20.6169 4.57235 20.9896 4.57235 21.8336C4.57235 22.7805 3.79202 23.5859 2.58566 23.5859H1.74205L2.27352 20.6983ZM0 27.7716H0.953277L1.58598 24.3442H2.42959C3.20149 24.3442 3.58955 24.7983 3.6486 25.8737C3.67776 26.512 3.73971 27.1484 3.8342 27.7801H4.82122C4.68291 27.0741 4.60249 26.3576 4.58079 25.638C4.52174 24.8197 4.256 24.2371 3.73718 24.0486V24.0229C4.24595 23.8976 4.70068 23.6073 5.03252 23.1961C5.36435 22.7848 5.55523 22.275 5.57625 21.7437C5.57594 21.5004 5.52463 21.2599 5.42572 21.0383C5.32681 20.8167 5.18257 20.619 5.00259 20.4584C4.47481 20.0443 3.81636 19.8402 3.15088 19.8843C2.58404 19.8842 2.01868 19.943 1.46366 20.06L0 27.7716Z"
        fill="CurrentColor" />
</svg>