<svg width="100" height="100" viewBox="0 0 100 100" fill="none" xmlns="http://www.w3.org/2000/svg">
<g clip-path="url(#clip0_3045_12797)">
<path d="M47.051 24.09C50.9355 24.09 54.0959 20.9296 54.0959 17.0451C54.0959 13.1604 50.9355 10 47.051 10C43.1674 10 40.0078 13.1604 40.0078 17.0449C40.0078 20.9296 43.1674 24.09 47.051 24.09Z" fill="#AD2131"/>
<path d="M76.8484 41.6673L71.7688 36.5881C71.479 36.2983 71.0923 36.1385 70.6804 36.1385C70.2682 36.1385 69.8817 36.2983 69.5919 36.5881L68.1045 38.0753C68.0433 38.0039 67.9825 37.9328 67.9154 37.8656C67.2786 37.2285 66.4329 36.8633 65.519 36.8179C65.4647 36.7239 65.406 36.6316 65.3403 36.5422L62.9205 33.2431C62.2225 32.2916 60.9818 31.0432 60.0337 30.3395L53.6212 25.5792C53.4166 25.4285 52.7312 24.9922 51.9921 24.9922C51.9921 24.9922 42.9696 24.9943 42.952 24.9949C41.9046 25.0175 41.1386 25.5862 40.6138 26.7344L37.8503 32.7793C37.7918 32.8535 37.6278 32.9881 37.5438 33.031L31.9114 34.3709C31.1367 34.5553 30.4801 35.0302 30.0627 35.7082C29.6453 36.3863 29.517 37.1865 29.7012 37.961C30.0221 39.3105 31.2137 40.2528 32.599 40.2528C32.8304 40.2528 33.0635 40.2255 33.2913 40.1713L38.9776 38.8186C40.7399 38.3994 42.4965 36.9559 43.2496 35.3086L43.4848 34.7943L45.0174 40.8134L41.0539 44.2559C39.5176 45.59 38.7287 47.9145 39.1354 49.9086L40.9726 58.9098C41.2701 60.3673 42.5642 61.4252 44.0494 61.425C44.2602 61.425 44.4727 61.4034 44.6812 61.361C46.3792 61.0143 47.4788 59.3508 47.1322 57.6526L45.3379 48.8618L49.4368 45.3016C49.5456 45.207 49.6432 45.1049 49.7358 44.9994H52.7513L54.7832 52.581C55.0773 53.6778 55.7063 55.2571 56.2464 56.2545L60.7077 64.4945C61.2582 65.5106 62.3183 66.1419 63.4746 66.1419C63.5312 66.1419 63.5882 66.1403 63.6447 66.1373C64.11 66.1118 64.5557 65.9858 64.9683 65.7622C66.4925 64.9371 67.0612 63.0257 66.2362 61.5015L61.7744 53.2611C61.4631 52.686 61.025 51.5859 60.855 50.9517L56.5926 35.2149C57.0741 35.6008 57.7891 36.3288 58.112 36.7693L60.5316 40.0683C60.7409 40.3536 60.9976 40.5959 61.2869 40.7874C61.2691 41.8002 61.6401 42.7403 62.3401 43.4403C62.4071 43.5073 62.4781 43.5688 62.5494 43.6298L61.0624 45.1166C60.4622 45.7168 60.4622 46.6937 61.0624 47.2939L66.1417 52.3732C66.4317 52.663 66.8181 52.8227 67.2301 52.8227H67.2303C67.6421 52.8227 68.0286 52.663 68.3186 52.3732L76.8477 43.8444C77.4486 43.2442 77.4486 42.2675 76.8484 41.6673ZM63.6339 42.1468C63.3952 41.9081 63.2356 41.6088 63.1615 41.2779C63.7168 41.2367 64.2444 41.0425 64.6989 40.7093C65.3728 40.2152 65.7768 39.489 65.8849 38.7205C66.1638 38.8052 66.4159 38.9535 66.6215 39.1592C66.689 39.2266 66.7482 39.3001 66.8031 39.3764L63.8509 42.3285C63.7746 42.2735 63.7012 42.2141 63.6339 42.1468Z" fill="#AD2131"/>
<path d="M33.772 55.793H23.5105C22.5129 55.793 21.7012 56.6046 21.7012 57.6021V89.1903C21.7012 90.1878 22.5129 90.9995 23.5105 90.9995H33.772C34.7697 90.9995 35.5813 90.1878 35.5813 89.1903V57.6021C35.5813 56.6046 34.7697 55.793 33.772 55.793Z" fill="#AD2131"/>
<path d="M50.0766 62.6406H39.8153C38.8176 62.6406 38.0059 63.4522 38.0059 64.4498V89.191C38.0059 90.1886 38.8176 91.0001 39.8153 91.0001H50.0766C51.0744 91.0001 51.886 90.1886 51.886 89.191V64.4498C51.886 63.4522 51.0742 62.6406 50.0766 62.6406Z" fill="#AD2131"/>
<path d="M66.3788 67.2109H56.118C55.1202 67.2109 54.3086 68.0226 54.3086 69.0202V89.1928C54.3086 90.1903 55.1202 91.0023 56.118 91.0023H66.3788C67.3766 91.0023 68.1883 90.1903 68.1883 89.1928V69.0202C68.1883 68.0226 67.3766 67.2109 66.3788 67.2109Z" fill="#AD2131"/>
</g>
<defs>
<clipPath id="clip0_3045_12797">
<rect width="81" height="81" fill="white" transform="translate(9 10)"/>
</clipPath>
</defs>
</svg>
