<svg width="100" height="100" viewBox="0 0 100 100" fill="none" xmlns="http://www.w3.org/2000/svg">
<path d="M46.9765 17.395C51.7722 17.395 55.6739 13.4933 55.6739 8.69762C55.6739 3.90173 51.7722 0 46.9765 0C42.1819 0 38.2812 3.90173 38.2812 8.69741C38.2812 13.4933 42.1819 17.395 46.9765 17.395Z" fill="#AD2131"/>
<path d="M83.7629 39.0944L77.4917 32.8237C77.1339 32.4659 76.6566 32.2687 76.148 32.2687C75.6391 32.2687 75.162 32.4659 74.8042 32.8237L72.9679 34.6598C72.8924 34.5717 72.8173 34.4838 72.7344 34.4009C71.9483 33.6144 70.9042 33.1635 69.7759 33.1075C69.7089 32.9914 69.6364 32.8775 69.5553 32.7671L66.5679 28.6941C65.7062 27.5194 64.1744 25.9782 63.004 25.1094L55.0873 19.2325C54.8347 19.0464 53.9885 18.5078 53.0761 18.5078C53.0761 18.5078 41.9372 18.5104 41.9155 18.5111C40.6223 18.5391 39.6767 19.2412 39.0288 20.6587L35.617 28.1215C35.5448 28.2131 35.3424 28.3793 35.2386 28.4322L28.2851 30.0865C27.3286 30.3141 26.518 30.9004 26.0027 31.7375C25.4874 32.5746 25.329 33.5625 25.5564 34.5187C25.9526 36.1847 27.4237 37.3481 29.1339 37.3481C29.4197 37.3481 29.7074 37.3143 29.9886 37.2475L37.0088 35.5774C39.1844 35.0599 41.3531 33.2778 42.2829 31.2441L42.5732 30.6092L44.4653 38.0401L39.5721 42.2901C37.6755 43.9372 36.7015 46.8069 37.2036 49.2688L39.4717 60.3814C39.839 62.1808 41.4367 63.4868 43.2703 63.4866C43.5305 63.4866 43.7928 63.4599 44.0502 63.4076C46.1466 62.9795 47.5041 60.9258 47.0762 58.8293L44.861 47.9765L49.9214 43.5811C50.0557 43.4644 50.1762 43.3383 50.2905 43.2081H54.0134L56.5219 52.568C56.885 53.9221 57.6615 55.8719 58.3283 57.1033L63.8361 67.2761C64.5157 68.5305 65.8245 69.3099 67.252 69.3099C67.3219 69.3099 67.3922 69.3079 67.462 69.3042C68.0364 69.2728 68.5867 69.1172 69.0961 68.8412C70.9778 67.8225 71.6799 65.4628 70.6614 63.581L65.153 53.4077C64.7687 52.6977 64.2278 51.3396 64.0179 50.5566L58.7557 31.1284C59.3501 31.6049 60.2329 32.5036 60.6315 33.0474L63.6187 37.1203C63.8771 37.4725 64.1939 37.7717 64.5511 38.008C64.5291 39.2584 64.9872 40.4191 65.8514 41.2833C65.9341 41.366 66.0217 41.4419 66.1098 41.5172L64.274 43.3528C63.533 44.0938 63.533 45.2998 64.274 46.0408L70.5447 52.3115C70.9027 52.6693 71.3798 52.8665 71.8884 52.8665H71.8886C72.397 52.8665 72.8742 52.6693 73.2322 52.3115L83.762 41.7821C84.5038 41.0411 84.5038 39.8354 83.7629 39.0944ZM67.4486 39.6863C67.1539 39.3917 66.9569 39.0221 66.8654 38.6136C67.551 38.5628 68.2024 38.323 68.7635 37.9116C69.5954 37.3017 70.0942 36.4051 70.2277 35.4563C70.572 35.5609 70.8832 35.744 71.137 35.9979C71.2204 36.0812 71.2935 36.1719 71.3612 36.2661L67.7166 39.9107C67.6224 39.8428 67.5317 39.7694 67.4486 39.6863Z" fill="#AD2131"/>
<path d="M30.5838 56.5352H17.9154C16.6837 56.5352 15.6816 57.5372 15.6816 58.7687V97.7665C15.6816 98.998 16.6837 100 17.9154 100H30.5838C31.8156 100 32.8176 98.998 32.8176 97.7665V58.7687C32.8176 57.5372 31.8156 56.5352 30.5838 56.5352Z" fill="#AD2131"/>
<path d="M50.7127 64.9883H38.0444C36.8126 64.9883 35.8105 65.9903 35.8105 67.2219V97.7665C35.8105 98.9981 36.8126 100 38.0444 100H50.7127C51.9445 100 52.9465 98.9981 52.9465 97.7665V67.2219C52.9465 65.9903 51.9443 64.9883 50.7127 64.9883Z" fill="#AD2131"/>
<path d="M70.839 70.6289H58.1713C56.9395 70.6289 55.9375 71.6309 55.9375 72.8625V97.767C55.9375 98.9985 56.9395 100.001 58.1713 100.001H70.839C72.0708 100.001 73.073 98.9985 73.073 97.767V72.8625C73.073 71.6309 72.0708 70.6289 70.839 70.6289Z" fill="#AD2131"/>
</svg>
