<svg width="100" height="85" viewBox="0 0 100 85" fill="none" xmlns="http://www.w3.org/2000/svg">
    <path
        d="M47.35 16.09a7.05 7.05 0 1 0-.02-14.1 7.05 7.05 0 0 0 .02 14.1ZM77.15 33.67l-5.08-5.08a1.53 1.53 0 0 0-1.1-.45c-.4 0-.79.16-1.08.45l-1.49 1.49a3.61 3.61 0 0 0-2.59-1.26c-.05-.1-.1-.19-.17-.28l-2.42-3.3c-.7-.95-1.94-2.2-2.89-2.9l-6.41-4.76c-.2-.15-.89-.59-1.63-.59h-9.04c-1.05.03-1.81.6-2.34 1.74l-2.76 6.05c-.06.07-.22.2-.3.25l-5.64 1.34a2.96 2.96 0 0 0-2.21 3.6 2.97 2.97 0 0 0 3.59 2.2l5.69-1.35a6.7 6.7 0 0 0 4.27-3.51l.23-.52 1.54 6.02-3.97 3.45a6.17 6.17 0 0 0-1.92 5.65l1.84 9a3.15 3.15 0 0 0 3.71 2.45 3.15 3.15 0 0 0 2.45-3.7l-1.8-8.8 4.1-3.56.3-.3h3.02l2.03 7.58c.3 1.1.93 2.68 1.47 3.67L61 56.5a3.14 3.14 0 1 0 5.52-2.99l-4.46-8.24c-.3-.57-.75-1.67-.92-2.3L56.9 27.2c.48.4 1.2 1.12 1.52 1.56l2.42 3.3c.21.28.47.53.76.72a3.62 3.62 0 0 0 1.26 2.84l-1.49 1.49c-.6.6-.6 1.57 0 2.17l5.08 5.08c.3.3.68.45 1.09.45.41 0 .8-.16 1.09-.45l8.53-8.53c.6-.6.6-1.57 0-2.17Zm-13.22.48c-.24-.24-.4-.54-.47-.87a2.96 2.96 0 0 0 2.72-2.56 1.76 1.76 0 0 1 .92.66l-2.95 2.95a1.76 1.76 0 0 1-.22-.18ZM34.07 47.8H23.81c-1 0-1.81.8-1.81 1.8V81.2c0 1 .81 1.8 1.8 1.8h10.27c1 .01 1.81-.8 1.81-1.8V49.6c0-1-.81-1.8-1.8-1.8Z"
        fill="#AD2131" />
    <path
        d="M50.38 54.64H40.1c-1 0-1.8.81-1.8 1.81v24.74c0 1 .8 1.81 1.8 1.81h10.27c1 0 1.8-.81 1.8-1.8V56.44c0-1-.8-1.8-1.8-1.8ZM66.68 59.21H56.42c-1 0-1.81.81-1.81 1.81v20.17c0 1 .8 1.81 1.8 1.81h10.27c1 0 1.8-.81 1.8-1.8V61.01c0-1-.8-1.8-1.8-1.8Z"
        fill="#AD2131" />
</svg>