<svg width="16" height="19" viewBox="0 0 16 19" fill="none" xmlns="http://www.w3.org/2000/svg">
    <path
        d="M9.51 11.55H0V9.5h9.51c.93 0 1.7-.15 2.29-.46a2.9 2.9 0 0 0 1.31-1.29c.3-.56.44-1.21.44-1.97 0-.62-.14-1.2-.41-1.77a3.24 3.24 0 0 0-1.29-1.4 4.38 4.38 0 0 0-2.34-.55H5.1V19H2.64V0h6.87c1.4 0 2.6.25 3.55.74a5.07 5.07 0 0 1 2.19 2.04c.5.86.75 1.85.75 2.97 0 1.22-.25 2.27-.75 3.14a4.86 4.86 0 0 1-2.19 1.98c-.96.45-2.14.68-3.55.68Zm-.15 1.79v2.06H0v-2.06h9.36Z"
        fill="CurrentColor" />
</svg>