<svg width="360" height="540" viewBox="0 0 100 100" xmlns="http://www.w3.org/2000/svg">
    <g transform="matrix(-1 0 0 1 100 0)">
        <animateTransform attributeName="transform" type="rotate" repeatCount="indefinite" values="360 50 50;0 50 50"
            keyTimes="0;1" dur="2s" keySplines="0.5 0.5 0.5 0.5" calcMode="spline" />
        <path fill="#ad2131" d="M91 74c-15 24-50 28-70 7a40 40 0 0 0 60-5c2-2 3-7 6-8 4 0 6 4 4 6z" />
        <path fill="#a6a6a6"
            d="M51 5c-4 0-5 6-1 7l6 1 6 1c6 1 11 4 16 7 12 10 17 26 14 41a44 44 0 0 0-19-50c-6-4-15-7-22-7z" />
        <path fill="#666565"
            d="M31 13C12 23 2 44 8 65c0 3 3 15 9 10 2-2 1-4 0-6l-4-10c-2-8-2-17 1-25 5-11 15-20 26-24l-9 3z" />
    </g>
</svg>