<svg width="108" height="122" viewBox="0 0 108 122" xmlns="http://www.w3.org/2000/svg">
    <path fill='CurrentColor'
        d="M4.87 9.06h33.35V6.19c0-.1 0-.19.02-.28A6.19 6.19 0 0 1 44.37 0h19.96a6.2 6.2 0 0 1 6.18 6.15l-.01.02h.01v2.89h32.93a4.9 4.9 0 0 1 3.44 1.44 4.85 4.85 0 0 1 1.4 3.37v.03h.01v10.86a2.67 2.67 0 0 1-2.66 2.67H2.66A2.67 2.67 0 0 1 0 24.76V13.92c0-.1 0-.21.02-.32v-.02a4.86 4.86 0 0 1 4.8-4.51h.02v-.01h.03zM77.8 49.1h-5.95v56.09h5.95v-56.1zm-19.33 0h-5.95v56.09h5.95v-56.1zm-19.33 0h-5.95v56.09h5.95v-56.1zm-28.3-17.53h87.4l.27.02h.13l.13.02h.01l.16.02c1.37.16 2.64.79 3.58 1.7a5.56 5.56 0 0 1 1.68 4.26v.06l-.01.16-7.4 79.33v.05l-.01.14-.05.28v.02c-.06.33-.13.65-.22.93v.02l-.02.02-.02.07v.02a7 7 0 0 1-.43 1 5.85 5.85 0 0 1-5.2 3.2h-72.7l-.25-.02h-.04a5.9 5.9 0 0 1-2.49-.7 6.35 6.35 0 0 1-3.18-5.02l-7.3-79.36-.01-.13-.01-.24v-.12h-.01c0-1.55.66-2.94 1.7-3.97a6.2 6.2 0 0 1 3.76-1.73h.12l.3-.02h.1v-.01zm87.4 5.33h-87.5a.78.78 0 0 0-.45.22c-.06.07-.1.13-.1.18v.12l7.28 79.24v.02c.03.37.2.69.45.82l.08.04h72.84c.2 0 .4-.15.51-.37l.09-.2.05-.21.02-.14 7.38-79.21v-.11c0-.04-.04-.11-.1-.17a.84.84 0 0 0-.45-.23h-.1zm.1 0h-.01.01zm.55.51zm5.3.38v.02-.02zm-63.3-23.4H5.34v7.7h97.63v-7.7H67.84a2.66 2.66 0 0 1-2.66-2.67V6.17a.88.88 0 0 0-.77-.84H44.39c-.2 0-.42.1-.57.25h-.01a.93.93 0 0 0-.26.5v5.64c0 1.48-1.2 2.67-2.66 2.67z" />
</svg>