<svg width="30" height="30" viewBox="0 0 30 30" fill="none" xmlns="http://www.w3.org/2000/svg">
    <path
        d="M6 21.02c1.7 1.04 3.7 1.65 5.84 1.65 7.1 0 11.09-5.8 10.85-10.99a7.28 7.28 0 0 0 1.9-1.93c-.69.28-1.42.47-2.2.56a3.62 3.62 0 0 0 1.66-2.03c-.73.43-1.56.76-2.43.9A3.92 3.92 0 0 0 18.84 8a3.69 3.69 0 0 0-3.7 4.53 10.89 10.89 0 0 1-7.88-3.87 3.63 3.63 0 0 0 1.17 4.95c-.63 0-1.21-.18-1.75-.47a3.75 3.75 0 0 0 3.07 3.68c-.54.14-1.12.19-1.7.05a3.76 3.76 0 0 0 3.54 2.55A7.42 7.42 0 0 1 6 21.02Z"
        fill="CurrentColor" />
</svg>