<svg width="100" height="85" viewBox="0 0 100 85" fill="none" xmlns="http://www.w3.org/2000/svg">
    <path fill="#AD2131"
        d="M42.54 33.61c-1.06 0-1.68.52-1.68 1.64v4.86c0 1.13.62 1.64 1.68 1.64s1.7-.52 1.7-1.64v-4.86c0-1.12-.64-1.64-1.7-1.64ZM58.22 44.62c-1.06 0-1.67.51-1.67 1.64v4.85c0 1.13.61 1.64 1.67 1.64s1.71-.51 1.71-1.64v-4.85c0-1.13-.65-1.64-1.7-1.64ZM94 43.34l5.74-8.4a1.5 1.5 0 0 0-1.25-2.36H84.65l-.39 1.58 1.86 1.93a10.4 10.4 0 0 1 2.93 7.25c0 2.71-1.04 5.29-2.93 7.25l-1.86 1.93.4 1.57h13.83a1.5 1.5 0 0 0 1.25-2.35L94 43.34ZM10.95 43.34c0-2.72 1.04-5.3 2.93-7.25l1.86-1.93-.4-1.58H1.52a1.5 1.5 0 0 0-1.25 2.36L6 43.34l-5.74 8.4a1.5 1.5 0 0 0 1.25 2.35h13.84l.39-1.57-1.86-1.93a10.4 10.4 0 0 1-2.93-7.25Z" />
    <path fill="#AD2131"
        d="M81.29 45.93a3.74 3.74 0 0 0 0-5.19l-3-3.11a3.74 3.74 0 0 1-.94-3.5l1.04-4.2a3.74 3.74 0 0 0-2.59-4.49l-4.15-1.2a3.74 3.74 0 0 1-2.56-2.55l-1.2-4.16a3.74 3.74 0 0 0-3.59-2.7c-.6 0-.5.01-5.1 1.15a3.74 3.74 0 0 1-3.5-.94l-3.1-3a3.74 3.74 0 0 0-5.2 0l-3.1 3a3.74 3.74 0 0 1-3.5.94l-4.2-1.04a3.74 3.74 0 0 0-4.49 2.6l-1.2 4.15a3.74 3.74 0 0 1-2.55 2.56l-4.16 1.2a3.74 3.74 0 0 0-2.6 4.49l1.05 4.2a3.74 3.74 0 0 1-.94 3.49l-3 3.11a3.74 3.74 0 0 0 0 5.19l3 3.11c.9.93 1.25 2.25.94 3.5l-1.04 4.2a3.74 3.74 0 0 0 2.6 4.48l4.15 1.2a3.74 3.74 0 0 1 2.55 2.56l1.2 4.15a3.74 3.74 0 0 0 4.5 2.6l4.19-1.04a3.74 3.74 0 0 1 3.5.93l3.1 3a3.74 3.74 0 0 0 5.2 0l3.1-3a3.74 3.74 0 0 1 3.5-.93l4.2 1.04a3.74 3.74 0 0 0 4.5-2.6l1.19-4.15a3.74 3.74 0 0 1 2.56-2.56l4.15-1.2a3.74 3.74 0 0 0 2.6-4.49l-1.05-4.2c-.3-1.24.05-2.56.94-3.49l3-3.11ZM37.4 40.1v-4.85c0-3.38 2.22-4.61 5.13-4.61 2.87 0 5.12 1.23 5.12 4.61v4.85c0 3.39-2.25 4.62-5.12 4.62-2.9 0-5.13-1.23-5.13-4.62Zm8.68 16.24c-.24.51-.89.85-1.54.85a1.9 1.9 0 0 1-1.91-1.8c0-.21.07-.45.17-.66l12-24.64c.27-.58.82-.86 1.43-.86.96 0 2.02.72 2.02 1.82 0 .2-.04.44-.14.65L46.1 56.34Zm17.26-5.23c0 3.38-2.26 4.61-5.13 4.61-2.9 0-5.12-1.23-5.12-4.61v-4.85c0-3.39 2.22-4.62 5.12-4.62 2.87 0 5.13 1.23 5.13 4.62v4.85Z" />
</svg>