<svg width="100" height="100" viewBox="0 0 100 100" fill="none" xmlns="http://www.w3.org/2000/svg">
<g clip-path="url(#clip0_2994_12790)">
<path d="M42.5359 40.2773C41.4766 40.2773 40.8613 40.79 40.8613 41.918V46.7711C40.8613 47.899 41.4766 48.4117 42.5359 48.4117C43.5953 48.4117 44.2447 47.899 44.2447 46.7711V41.918C44.2447 40.79 43.5953 40.2773 42.5359 40.2773Z" fill="#AD2131"/>
<path d="M58.2234 51.2812C57.1641 51.2812 56.5488 51.7939 56.5488 52.9219V57.775C56.5488 58.9027 57.1641 59.4156 58.2234 59.4156C59.2828 59.4156 59.9322 58.9027 59.9322 57.775V52.9219C59.9324 51.7937 59.2832 51.2812 58.2234 51.2812Z" fill="#AD2131"/>
<path d="M94.0051 50.0016L99.7383 41.6037C100.054 41.1418 100.087 40.5432 99.8262 40.0486C99.5646 39.5541 99.0512 39.2461 98.4918 39.2461C95.6178 39.2461 90.7457 39.2461 84.6539 39.2461L84.2637 40.8209L86.1236 42.7525C88.0086 44.71 89.0465 47.2844 89.0465 50.0016C89.0465 52.7189 88.0086 55.2934 86.1236 57.2508L84.2637 59.1824L84.6539 60.757C90.727 60.757 95.5949 60.757 98.4918 60.757C99.0508 60.757 99.5639 60.4479 99.8252 59.9539C100.087 59.4598 100.054 58.8613 99.7385 58.3996L94.0051 50.0016Z" fill="#AD2131"/>
<path d="M10.9544 50.0018C10.9544 47.2844 11.9925 44.71 13.8773 42.7525L15.7373 40.8209L15.347 39.2461C9.25621 39.2461 4.38413 39.2461 1.50913 39.2461C0.95015 39.2461 0.437064 39.5553 0.175735 40.0494C-0.0855928 40.5436 -0.0525849 41.142 0.262454 41.6037L5.99566 50.0016L0.262649 58.3996C-0.0525849 58.8615 -0.0867646 59.4602 0.174759 59.9547C0.436282 60.449 0.949759 60.7572 1.50913 60.7572C4.44058 60.7572 9.30328 60.7572 15.347 60.7572L15.7373 59.1826L13.8773 57.251C11.9925 55.2936 10.9544 52.7191 10.9544 50.0018Z" fill="#AD2131"/>
<path d="M81.2887 52.5918C82.6832 51.1437 82.6832 48.8525 81.2887 47.4045L78.2898 44.29C77.398 43.3639 77.0445 42.0447 77.3537 40.7969L78.3939 36.6002C78.8775 34.6488 77.732 32.6646 75.8002 32.1078L71.6457 30.9102C70.4103 30.5541 69.4445 29.5883 69.0885 28.3529L67.8908 24.1984C67.4201 22.5654 65.9291 21.4943 64.3002 21.4943C63.6977 21.4943 63.7914 21.5076 59.2016 22.6451C57.9461 22.9563 56.6285 22.5953 55.7084 21.709L52.5939 18.71C51.1459 17.3154 48.8547 17.3154 47.4066 18.71L44.2922 21.709C43.3678 22.599 42.0488 22.9549 40.799 22.6451L36.6023 21.6049C34.651 21.1211 32.6668 22.2672 32.11 24.1984L30.9123 28.3529C30.5562 29.5883 29.5904 30.5541 28.3551 30.9102L24.2006 32.1078C22.2689 32.6646 21.1232 34.6488 21.6068 36.6002L22.6471 40.7969C22.9562 42.0447 22.6027 43.3641 21.7109 44.29L18.7119 47.4045C17.3174 48.8525 17.3174 51.1437 18.7119 52.5918L21.7109 55.7062C22.6027 56.6324 22.9562 57.9516 22.6471 59.1994L21.6068 63.3961C21.1232 65.3473 22.2687 67.3316 24.2006 67.8885L28.3551 69.0861C29.5904 69.4422 30.5562 70.408 30.9123 71.6434L32.11 75.7978C32.6668 77.7297 34.6508 78.8752 36.6023 78.3916L40.799 77.3514C42.0547 77.04 43.3723 77.4014 44.2922 78.2875L47.4066 81.2865C48.8547 82.6811 51.1459 82.6811 52.5939 81.2865L55.7084 78.2875C56.627 77.4029 57.9434 77.0398 59.2016 77.3514L63.3982 78.3916C65.3496 78.8754 67.3338 77.7293 67.8906 75.7978L69.0883 71.6434C69.4443 70.408 70.4102 69.4422 71.6455 69.0861L75.8 67.8885C77.7316 67.3316 78.8773 65.3473 78.3937 63.3961L77.3535 59.1994C77.0443 57.9516 77.3978 56.6322 78.2896 55.7062L81.2887 52.5918ZM37.41 46.7676V41.9145C37.41 38.5309 39.6314 37.3004 42.5365 37.3004C45.4074 37.3004 47.6631 38.5309 47.6631 41.9145V46.7676C47.6631 50.1512 45.4074 51.3816 42.5365 51.3816C39.6316 51.3814 37.41 50.1512 37.41 46.7676ZM46.0908 63.0016C45.8518 63.5143 45.2021 63.856 44.5527 63.856C43.3906 63.856 42.6387 62.8992 42.6387 62.0445C42.6387 61.8394 42.707 61.6002 42.8096 61.3951L54.8057 36.7533C55.0791 36.1723 55.626 35.899 56.241 35.899C57.198 35.899 58.2576 36.6168 58.2576 37.7105C58.2576 37.9156 58.2234 38.1549 58.1207 38.3598L46.0908 63.0016ZM63.3506 57.7727C63.3506 61.156 61.0949 62.3867 58.224 62.3867C55.3191 62.3867 53.0975 61.1562 53.0975 57.7727V52.9195C53.0975 49.5359 55.3189 48.3055 58.224 48.3055C61.0949 48.3055 63.3506 49.5359 63.3506 52.9195V57.7727Z" fill="#AD2131"/>
</g>
<defs>
<clipPath id="clip0_2994_12790">
<rect width="100" height="100" fill="white"/>
</clipPath>
</defs>
</svg>
