<svg width="30" height="30" viewBox="0 0 30 30" fill="none" xmlns="http://www.w3.org/2000/svg">
    <path fill-rule="evenodd" clip-rule="evenodd"
        d="M26.32 9.97c-.28-.2-1.38-.2-2.43-.2-1.1.04-2.19.04-2.43.12-.24.08-.77 1.31-1.42 2.63-.77 1.43-1.74 2.82-2.3 2.82-.77 0-.61-2.35-.53-4.14 0-1.15-.16-1.5-.37-1.63-.4-.28-1.53-.56-1.53-.56s-3.4-.23-3.9 1.2c.66.08 1.79-.12 1.34 4.33-.04.2-.52 2.07-2.1-.43-.4-.64-1.9-4.34-2.43-4.38-1.74-.04-3.48-.12-4.09.2-.57.32.77 2.86 3 6.29 1.82 2.82 3.72 5 7.04 5.52.65.08 2.27.12 2.8-.11.32-.16-.09-2.59 1.09-2.83.53-.08 2.55 2.55 3.32 2.83.48.2 1.5.27 2.55.2 1.13-.05 2.43.11 2.55-.64.28-1.67-3.44-3.86-3.52-4.9-.08-.75 1.33-2.1 2.1-3.14.81-1.15 1.83-2.7 1.26-3.18Z"
        fill="CurrentColor" />
</svg>