<?xml version="1.0" standalone="no"?>
<!DOCTYPE svg PUBLIC "-//W3C//DTD SVG 20010904//EN"
 "http://www.w3.org/TR/2001/REC-SVG-20010904/DTD/svg10.dtd">
<svg version="1.0" xmlns="http://www.w3.org/2000/svg"
 width="700.000000pt" height="700.000000pt" viewBox="0 0 700.000000 700.000000"
 preserveAspectRatio="xMidYMid meet">
<metadata>
Created by potrace 1.14, written by Peter Selinger 2001-2017
</metadata>
<g transform="translate(0.000000,700.000000) scale(0.100000,-0.100000)"
fill="#000000" stroke="none">
<path d="M485 5963 c-238 -55 -415 -231 -470 -467 -17 -72 -14 -240 4 -275 7
-11 9 -21 6 -21 -8 0 44 -112 75 -160 43 -66 100 -123 166 -168 334 -225 776
-70 908 318 25 74 30 234 11 318 -17 70 -62 168 -103 222 -30 39 -123 130
-134 130 -4 0 -13 6 -20 13 -7 7 -38 25 -68 39 -53 25 -72 32 -122 45 -28 8
-225 12 -253 6z"/>
<path d="M3357 5954 c-166 -40 -316 -162 -393 -318 -165 -340 9 -736 372 -845
88 -26 270 -24 349 4 200 72 346 232 399 435 21 78 14 248 -12 320 -69 195
-193 322 -376 388 -86 31 -246 39 -339 16z"/>
<path d="M6257 5955 c-158 -39 -304 -151 -385 -296 -49 -87 -67 -168 -67 -294
1 -104 4 -130 27 -191 71 -195 225 -337 421 -388 70 -19 236 -18 301 1 201 59
357 211 419 408 33 105 30 261 -7 368 -25 74 -76 161 -128 217 -69 76 -186
146 -289 173 -72 19 -219 20 -292 2z"/>
<path d="M5778 4412 l-56 -3 -30 -57 c-24 -47 -126 -236 -304 -562 -17 -30
-55 -102 -86 -160 -31 -58 -77 -143 -103 -190 l-47 -85 -579 -3 -579 -2 1 476
c0 414 -2 477 -15 483 -11 5 -867 7 -937 2 -10 -1 -13 -104 -13 -481 l0 -480
-598 0 -598 0 -103 203 c-56 111 -165 327 -242 480 -139 275 -140 277 -172
278 -140 4 -901 3 -907 -1 -4 -3 37 -95 91 -205 54 -110 154 -315 223 -455 68
-140 205 -419 304 -620 98 -201 209 -429 247 -507 l69 -141 611 3 c335 2 1096
7 1690 10 594 4 1292 7 1550 9 l470 2 25 50 c14 28 39 82 57 120 37 79 108
234 146 314 14 30 37 81 51 112 14 32 41 91 60 130 19 40 57 123 84 183 28 61
71 155 97 210 26 55 54 116 62 135 9 19 40 86 69 149 30 62 54 115 54 116 0 4
32 74 117 255 43 91 103 226 103 232 0 4 -734 4 -812 0z"/>
<path d="M1420 1772 l-75 -3 0 -377 0 -377 2198 -3 2197 -2 0 380 0 380 -42 0
c-319 3 -4223 4 -4278 2z"/>
</g>
</svg>
